<?xml version="1.0"?>
<svg width="1024" height="1024" xmlns="http://www.w3.org/2000/svg" xmlns:svg="http://www.w3.org/2000/svg" class="svg-icon" version="1.1">
 <g class="layer">
  <title>Layer 1</title>
  <path d="m694.62,720.53l-397.2,0c-11.37,0 -20.1,9.18 -20.1,20.65c0,11.36 8.73,20.1 20.1,20.1l397.2,0c11.13,0 20.53,-8.74 20.53,-20.1c0,-11.47 -9.4,-20.65 -20.53,-20.65l0,0zm-397.2,-411.07l0,0l58.98,0l0,58.66c0,11.59 9.18,20.33 20.33,20.33c11.8,0 20.76,-8.74 20.76,-20.33l0,-58.66l58.54,0c11.37,0 20.54,-9.5 20.54,-20.64c0,-11.36 -9.17,-20.65 -20.54,-20.65l-58.54,0l0,-58.66c0,-11.15 -8.96,-20.54 -20.76,-20.54c-11.15,0 -20.33,9.39 -20.33,20.54l0,58.66l-58.98,0c-11.37,0 -20.1,9.29 -20.1,20.65c0,11.14 8.73,20.64 20.1,20.64l0,0zm-20.1,143.22l0,0c0,11.35 8.73,20.53 20.1,20.53l397.2,0c11.13,0 20.53,-9.18 20.53,-20.53c0,-11.47 -9.4,-20.66 -20.53,-20.66l-397.2,0c-11.37,0.01 -20.1,9.19 -20.1,20.66l0,0zm597.1,-113.72l0,0l-246.45,-246.78c-6.33,-6.22 -15.29,-10.16 -24.24,-10.16l-404.85,0c-24.69,0 -48.06,10.16 -64.45,26.98c-16.83,16.5 -26.88,39.44 -26.88,64.68l0,704.92c0,25.13 10.05,47.96 26.88,64.46l0,0l0,0c16.82,16.49 39.76,26.87 64.45,26.87l594.05,0c25.13,0 47.41,-9.94 63.8,-25.89l0.87,-0.98c16.61,-16.5 27.09,-39.33 27.09,-64.46l0,-515.39c0,-8.74 -3.5,-17.48 -10.27,-24.25l0,0zm-250.6,-153.93l0,0l157.75,157.86l-120.6,0c-10.26,0 -19.67,-4.37 -26.44,-10.7l-0.87,-1.43c-5.69,-6.33 -9.84,-15.07 -9.84,-24.79l0,-120.94l0,0zm192.49,693.57l0,0c0,6.23 -2.19,12.02 -6.78,16.17l0,0.22c-4.36,3.93 -10.26,6.34 -16.6,6.34l-594.05,0c-6.11,0 -12.24,-2.41 -16.17,-6.56l0,0c-4.15,-4.15 -6.77,-9.94 -6.77,-16.17l0,-704.92c0,-6.56 2.62,-12.13 6.77,-16.5c3.93,-3.82 10.06,-6.77 16.17,-6.77l383.87,0l0,155.56c0,20.86 8.3,39.76 21.85,53.63l1.09,1.21c14.43,14.3 33.87,22.71 55.28,22.71l155.34,0l0,495.08l0,0zm-121.69,-302.04l0,0l-397.2,0c-11.37,0 -20.1,8.95 -20.1,20.31c0,11.47 8.73,20.43 20.1,20.43l397.2,0c11.13,0 20.53,-8.96 20.53,-20.43c0,-11.36 -9.4,-20.31 -20.53,-20.31l0,0z" fill="#333333" id="svg_1" stroke="#cccccc"/>
 </g>
</svg>